PathFileType	4	(X/Y/Z)	2_2_42_p0_0-443.trc
DataRate	CameraRate	NumFrames	NumMarkers	Units	OrigDataRate	OrigDataStartFrame	OrigNumFrames
59.0	59.0	7	27	m	59.0	388	444
Frame#	Time	RHip			RKnee			RAnkle			RBigToe			RSmallToe			RHeel			LHip			LKnee			LAnkle			LBigToe			LSmallToe			LHeel			Neck			Head			Nose			RShoulder			RElbow			RWrist			RThumb			RIndex			RPinky			LShoulder			LElbow			LWrist			LThumb			LIndex			LPinky			
		X1	Y1	Z1	X2	Y2	Z2	X3	Y3	Z3	X4	Y4	Z4	X5	Y5	Z5	X6	Y6	Z6	X7	Y7	Z7	X8	Y8	Z8	X9	Y9	Z9	X10	Y10	Z10	X11	Y11	Z11	X12	Y12	Z12	X13	Y13	Z13	X14	Y14	Z14	X15	Y15	Z15	X16	Y16	Z16	X17	Y17	Z17	X18	Y18	Z18	X19	Y19	Z19	X20	Y20	Z20	X21	Y21	Z21	X22	Y22	Z22	X23	Y23	Z23	X24	Y24	Z24	X25	Y25	Z25	X26	Y26	Z26	X27	Y27	Z27	
388	6.576271186440678	0.34612505846483294	0.5340154657141775	0.9928114226403154	0.3372057147097124	0.692976659628482	1.4254289967106482	0.2882845123090054	0.8991187680668223	1.8216834437779936	0.30106482498971204	0.6652186080864808	1.882620782775197	0.3450793233951112	0.7172037898019551	1.8913387990464063	0.2761741070715153	0.9228667200559115	1.8600875665732994	0.14366258746108518	0.5259485001167543	1.0019085946773159	0.12872950400146405	0.6928705071645159	1.4115365951438117	0.12853017175280415	0.8825316923909176	1.8216000879645102	0.12422103621114618	0.7034338817851065	1.9136899510605176	0.08141063858724357	0.7172203559242115	1.882848330156382	0.1346044998513927	0.9480724770824032	1.8684107707742188	0.25182443993939263	0.3712092840675008	0.4440031052072304	0.2756531449897821	0.1836270395366328	0.21917915465380422	0.28527130076518153	0.19052988349798347	0.38848969761392577	0.4137643921399366	0.4277085086376547	0.49716399323402577	0.47039379833957906	0.5459567469175363	0.7416661032274063	0.45531165975454013	0.4622500070187786	0.9983843032536327	0.39801383695126247	0.3441883796415181	1.1030213281646717	0.42021739325040847	0.37302298333930034	1.1157000679157694	0.4216685552659853	0.4819445854177766	1.12878116275315	0.08466357260270554	0.3984279967020042	0.515569941011077	0.031578880500353304	0.5300846284824918	0.7652712850680283	0.05714489359568514	0.42146934660974006	1.0262950461865403	0.12977947231134118	0.4300188486552022	1.115113726816194	0.11317240538407178	0.39642291094878535	1.1428515080698236	0.06171237144831642	0.4554949352356489	1.1543607343639946
389	6.593220338983051	0.3462841077712235	0.534745642222902	0.9927272853143888	0.3364406618776757	0.6943056649888508	1.4295913353851772	0.2882741581452842	0.8990561216614494	1.821611006290808	0.3009126278130106	0.6642707718283969	1.8821869495107777	0.3447620416629167	0.7155426321194863	1.8906402616755276	0.276209414323419	0.9232371473109002	1.8603611480897326	0.13771133092766377	0.5417461886428363	0.9985122493796221	0.12828945984496384	0.6902317687499238	1.4074145785416476	0.13019092600579335	0.8991664759512027	1.8257856982979142	0.12483305840133745	0.7028981577044836	1.917895177510379	0.08141207890381284	0.7175721228283439	1.882884703233254	0.13481633842558263	0.9485447322015499	1.8680785758099692	0.2518282309990422	0.37118944209472937	0.44400750103632625	0.2709602765179564	0.19436451744937114	0.21679164958843283	0.2851522376903342	0.19069385091927318	0.3884410757752256	0.41361895916995356	0.4285822555134648	0.5004453259168247	0.4705044519296299	0.5456598948949674	0.7416825925406791	0.4519563304501324	0.45030295876690957	0.994139243055222	0.39005082255242424	0.3432831149899539	1.0965506872695083	0.4171069151357203	0.36144354138977897	1.1147020201546065	0.42131079179182424	0.4824071960199275	1.1250226354536181	0.08463469287011471	0.3986086867629033	0.5155337248178536	0.03128320244322345	0.5303534574324916	0.7652724648961697	0.05255910444639559	0.4204212771421338	1.0300329156557955	0.12968455689452324	0.42888019724306947	1.107445956914184	0.11297946103197586	0.3964323152081276	1.142798126596477	0.06168504087566469	0.4557983018827613	1.1545519485312559
390	6.610169491525424	0.34624522889819637	0.5344109979557671	0.9926523347703248	0.33568503423556223	0.6912913108012351	1.4252324495637434	0.28823042321335207	0.899119735945513	1.821621769715515	0.29755668976082583	0.6472963410271333	1.8737132707726158	0.34354991036680904	0.7138933402554768	1.8855355755595182	0.27731003214359273	0.9274180155856648	1.8659220801828154	0.13794157610269495	0.5410258707110592	0.9986245040464696	0.12830939387496806	0.6936323100063062	1.4075666665402793	0.1302345661325629	0.8988336834396552	1.8258389778370612	0.12423306902550102	0.7034852734521402	1.9136792771177105	0.08139122039638684	0.717093041819292	1.8827048880662098	0.13468926774806003	0.9482476597514655	1.8684459747119977	0.25178752329946297	0.37116031360418184	0.4439735917174183	0.27097401931119536	0.19421392771558466	0.21691862455014	0.28509696418281305	0.1908033723844522	0.38838714266791013	0.41362459286360753	0.42847485049576023	0.5004467391801904	0.4706799213667645	0.545047178847122	0.7376287639272127	0.44784486260912604	0.46299019941185704	0.9912224321339624	0.39440486598608937	0.3303084988618148	1.0951370481896219	0.41703989390550555	0.36075464201771346	1.1147769647590784	0.42046473298765163	0.4790526391318622	1.121163111677598	0.08458213589806136	0.39879811715927954	0.5155830641821335	0.029858189171049505	0.5164722608074912	0.7658281335209277	0.04719869070534993	0.4032298353797016	1.0291931306327207	0.12708902383228665	0.41737198377921075	1.1175871175954903	0.11306953429218282	0.39598775582067397	1.147055342121808	0.05791390307645946	0.45326972360084355	1.1576219797095282
391	6.627118644067797	0.34618616688828246	0.5345211370822056	0.9926945446892841	0.3306812126506458	0.7070169398121227	1.428447479572253	0.2882440794269643	0.8990560690221542	1.8216116554978015	0.29744860068085244	0.6470245266909754	1.873542631119967	0.34332888619576796	0.7133350751554505	1.8853083547929246	0.277402187275032	0.927525627167743	1.866024367557983	0.1383697695572757	0.5415810740086421	1.0025870813053521	0.12886633310639067	0.6938635383313557	1.4120262616691754	0.13025680139850382	0.8990096840134898	1.8258778101742257	0.12426609806188187	0.703334211519993	1.9135700698175342	0.08739778988149892	0.7015510225270744	1.8774143180944973	0.13475875674237234	0.9485625805738324	1.868514872143399	0.2516181600101533	0.3720339597470595	0.44736536990461356	0.2668980086023746	0.19347121978929135	0.21719187606071455	0.28033837599822764	0.20194584154685738	0.38665175297646215	0.4135814478531366	0.42860523493400843	0.5004653807424495	0.47079537032700364	0.5449782567189787	0.7376116497058149	0.4478205413330885	0.46306871525705995	0.9911205400497772	0.3900783166989063	0.34328184365312375	1.0965155758488374	0.41705636983913946	0.36074803112741843	1.114618861603677	0.421102508790842	0.4780045107354636	1.1210249686715672	0.08452472617458828	0.39889020516211765	0.5155642741775996	0.029912721624146075	0.5152770093715249	0.7618624532360442	0.047361386670976634	0.40257322992529376	1.0329044729014347	0.12005594023913303	0.41744553804247997	1.1259271403421853	0.09474435363192256	0.4194521601532624	1.1508950021866453	0.05219320108729111	0.43977686109230135	1.1568595372589185
392	6.6440677966101696	0.3460544777366349	0.5349244854488135	0.9930240702271109	0.33075890792856183	0.7073207564833749	1.4287108196588323	0.28821287038126414	0.899058609508231	1.821588981214787	0.2972768124050613	0.6463520728563845	1.8731143255864726	0.34355222639908417	0.7112774896715539	1.88872004749251	0.27747961170952334	0.9278287617963928	1.8663117520665302	0.1379160038015022	0.543288364435646	1.006274259717022	0.13094659453196375	0.7089205757675596	1.4146677403371775	0.12915154495745526	0.9006739679587139	1.8305466077512942	0.12426942510971535	0.7032917630077747	1.9134885434676194	0.08628809028811422	0.7028748992793755	1.881588752483348	0.135461797748133	0.9521257953756197	1.8740711098295637	0.25171247992546725	0.37120584608868623	0.4440246784605174	0.26679060357241186	0.19354802317522599	0.21726179398011433	0.28030132759152787	0.20202373710637575	0.38662014986873394	0.41354097472744666	0.4285882382362604	0.5003814823383572	0.474746030512366	0.5284266409160926	0.7385087191850733	0.44793353521238854	0.4634298848111535	0.9986568685861509	0.3858650384941078	0.3422612681865822	1.0967426866841246	0.41251772975108736	0.35734859977323286	1.1111276381917152	0.42598484031656075	0.46294140651509186	1.1229689695776204	0.08453721733317249	0.3987399640479227	0.515682730354061	0.02571375010632128	0.513286673737201	0.7619038655223622	0.047208123723443504	0.40221957451485724	1.0330538636440547	0.10189631975001628	0.41642375335945964	1.1346219650615332	0.08295503947230463	0.43097954236596137	1.1535661344500006	0.04187612698371653	0.44998462003571543	1.1580873880330165
393	6.661016949152542	0.3461772123693048	0.5349384640898841	0.9928763944593584	0.33660719763889296	0.6902662230024271	1.42139110988545	0.2882407127382958	0.8991206909947544	1.8215803593256328	0.29776137598647795	0.6477501850774849	1.8739851168540187	0.3443732266353991	0.7136880116331797	1.8898304759588327	0.27728641032829715	0.9273902037466982	1.8658335657830725	0.13965846084730596	0.5563588484309202	1.0066473318411686	0.13115328492173178	0.7086797462043606	1.4146348800426964	0.1291953416630237	0.9007225090571903	1.8304444029470845	0.12430479975928822	0.7032858267864389	1.9135168672334928	0.0873755860186642	0.7013819220847576	1.8772646861633335	0.1346788915261265	0.9485369540761364	1.8688746336268383	0.25173970700598197	0.37125253980914014	0.44399906270735406	0.2667935590402752	0.19342394382702974	0.2172631629935178	0.2802110867971309	0.20194298761430224	0.386626183602505	0.4135598752696888	0.42861221094370566	0.5003978696279857	0.47494330879548946	0.5275555044876503	0.7383468690216481	0.4475033042652228	0.46398854938531725	0.9946894261001711	0.3901339148891808	0.3438247464718129	1.096754736606286	0.4175337304902454	0.3596715373046858	1.1108938311222214	0.4261188873545135	0.46228641986185104	1.1191380724481461	0.0845432114202618	0.3988510088634933	0.515739310101072	0.025179871417683238	0.5135034491473482	0.757944825455005	0.04624978090610408	0.3992395608936813	1.025261243393413	0.08798337517963478	0.4252227629054156	1.1324319604196313	0.06686792681978894	0.427617978450699	1.1547582629601805	0.036487438020305955	0.44720440331087186	1.1539910515922436
394	6.677966101694915	0.3411257560388417	0.5493049817693593	0.9938519868353393	0.3359916352437201	0.6917363032062998	1.425704743989959	0.28822718501006056	0.8990239977074476	1.8215318038484012	0.29720945476040816	0.6455097252325848	1.8727414728743998	0.34338356323379693	0.7098396861062164	1.8881494788600122	0.2775064903394079	0.9281261212178527	1.8668263085348247	0.13980778842033473	0.5572518472618729	1.0065710664468872	0.13120812101573337	0.7090332565875961	1.414613810466051	0.12923133481615878	0.9008161745339659	1.8304584521141098	0.12351335040352555	0.6997030301852911	1.9083469719074149	0.08731118536082527	0.7009325877835588	1.8768157068276283	0.13477985668394063	0.9488137413229988	1.8690860330116212	0.2517292891584022	0.3713163131424905	0.4439585698021455	0.26670189350794093	0.1934943816272813	0.21720878174068797	0.2802286257129402	0.2019741310070701	0.3866087270383537	0.4135197761342643	0.42873870292444693	0.5003495693976233	0.4751230383614609	0.5277099107545776	0.738443530507928	0.44790594593390465	0.46300069364633567	0.9910525040924818	0.3945318401823527	0.33096605399265805	1.0953955116315055	0.4177796258616977	0.35967036456299467	1.1108218979000077	0.43125598819070043	0.4482930682129171	1.1175438847469052	0.08455412186708866	0.39884522889520596	0.5157146983457859	0.023327894079629468	0.4969750339255346	0.7549941598123779	0.03666352084562311	0.40531164560568783	1.0185561466232707	0.08373234108273526	0.42251286364401336	1.1288148289453694	0.06267632538835347	0.42598380817431175	1.1550255824140405	0.03545262866027752	0.4492572237610339	1.1537892870243593
